<?xml version="1.0" standalone="no"?>
<!DOCTYPE svg PUBLIC "-//W3C//DTD SVG 20010904//EN"
 "http://www.w3.org/TR/2001/REC-SVG-20010904/DTD/svg10.dtd">
<svg version="1.0" xmlns="http://www.w3.org/2000/svg"
 width="420.000000pt" height="594.000000pt" viewBox="0 0 420.000000 594.000000"
 preserveAspectRatio="xMidYMid meet">
<metadata>
Created by potrace 1.16, written by Peter Selinger 2001-2019
</metadata>
<g transform="translate(0.000000,594.000000) scale(0.100000,-0.100000)"
fill="#000000" stroke="none">
<path d="M1255 5621 c-16 -10 -65 -54 -107 -99 -56 -57 -78 -87 -78 -105 0
-14 15 -79 34 -144 94 -328 137 -486 132 -490 -3 -3 -140 34 -306 81 -166 47
-314 86 -328 86 -19 0 -50 -24 -124 -98 -57 -57 -98 -106 -98 -118 0 -24 938
-964 962 -964 26 0 208 185 208 212 0 16 -77 99 -262 286 -235 236 -259 263
-228 257 19 -4 108 -27 197 -51 244 -65 223 -64 283 -8 28 26 53 57 56 70 3
12 -19 113 -50 229 -31 114 -56 212 -56 219 0 6 118 -107 263 -252 191 -191
268 -262 285 -262 33 0 202 169 202 202 0 17 -116 139 -473 496 -260 259 -475
472 -477 472 -3 0 -18 -8 -35 -19z"/>
<path d="M2760 5574 c-225 -44 -377 -161 -430 -333 -18 -57 -20 -93 -20 -381
0 -284 2 -325 19 -379 51 -163 176 -274 371 -327 88 -24 252 -24 340 0 217 59
356 191 389 370 14 78 14 584 0 662 -42 230 -249 381 -534 389 -60 2 -121 1
-135 -1z m237 -308 c36 -17 60 -38 80 -67 l28 -42 3 -281 c4 -312 0 -336 -61
-393 -95 -90 -288 -81 -370 16 -42 50 -49 111 -45 391 3 278 5 285 66 343 64
61 204 77 299 33z"/>
<path d="M856 3668 c-18 -26 -23 -199 -6 -242 l10 -26 280 0 c154 0 280 -3
280 -6 0 -5 -125 -181 -274 -384 -42 -58 -107 -147 -144 -198 -37 -52 -84
-117 -105 -145 -20 -29 -45 -63 -55 -77 -24 -33 -26 -265 -2 -280 21 -14 975
-13 1001 0 17 10 19 22 19 139 0 108 -3 130 -16 135 -9 3 -153 6 -320 6 -167
0 -304 2 -304 5 0 3 41 63 92 133 50 70 183 255 295 411 l203 283 0 118 c0 94
-3 122 -16 134 -14 14 -70 16 -469 16 l-454 0 -15 -22z"/>
<path d="M2718 3670 c-14 -10 -30 -32 -36 -47 -10 -25 -95 -255 -288 -778 -31
-82 -67 -179 -81 -215 -48 -121 -103 -283 -103 -300 0 -10 7 -21 16 -24 26
-10 264 -7 284 4 11 6 33 52 56 115 l38 105 262 0 261 0 38 -106 c30 -85 43
-107 62 -115 38 -14 266 -11 287 4 18 13 38 -44 -339 977 -29 80 -71 192 -92
250 -54 149 -56 150 -213 150 -111 0 -130 -2 -152 -20z m231 -606 c39 -117 74
-219 77 -228 5 -14 -11 -16 -155 -16 -107 0 -161 4 -161 11 0 6 34 110 75 231
41 121 75 223 75 226 0 27 28 -45 89 -224z"/>
<path d="M1127 2250 c-85 -47 -121 -164 -77 -256 59 -121 228 -143 317 -41 78
89 64 210 -33 283 -50 38 -149 45 -207 14z"/>
<path d="M892 1822 c-14 -2 -27 -14 -33 -28 -12 -33 -12 -196 1 -228 9 -25 12
-26 95 -26 l85 0 0 -410 0 -410 -85 0 c-104 0 -105 -1 -105 -144 0 -82 3 -108
16 -120 13 -14 58 -16 339 -16 178 0 330 3 339 6 13 5 16 26 16 128 0 82 -4
126 -12 134 -7 7 -44 12 -95 12 l-83 0 0 410 0 410 85 0 c73 0 86 3 95 19 15
28 13 223 -2 244 -12 15 -47 17 -323 19 -170 2 -320 2 -333 0z"/>
<path d="M2367 1821 c-37 -11 -37 -18 -37 -689 0 -431 4 -660 10 -673 10 -17
22 -19 148 -19 94 0 142 4 150 12 9 9 12 71 12 216 l0 204 69 72 c38 39 72 68
74 66 2 -3 70 -117 152 -255 81 -137 163 -265 181 -283 l34 -32 163 2 c160 3
162 3 165 26 3 22 -21 64 -357 615 l-103 168 38 42 c20 23 87 96 149 162 312
336 315 339 298 356 -6 6 -83 10 -189 10 l-179 0 -60 -63 c-33 -35 -126 -135
-205 -223 -80 -88 -160 -177 -179 -197 -19 -21 -38 -38 -43 -38 -4 0 -8 115
-8 255 0 212 -2 257 -14 261 -16 6 -250 11 -269 5z"/>
</g>
</svg>
